<svg width="57" height="58" viewBox="0 0 57 58" fill="none" xmlns="http://www.w3.org/2000/svg">
<path fill-rule="evenodd" clip-rule="evenodd" d="M19.0432 19.8159C18.6197 20.2393 18.2235 20.6796 17.8544 21.1347C12.4761 27.7662 12.8724 37.5249 19.0432 43.6957L27.572 52.2245C34.1662 58.8187 44.8576 58.8187 51.4518 52.2245C58.046 45.6303 58.046 34.9389 51.4518 28.3447L42.923 19.8159C36.7498 13.6427 26.986 13.2485 20.3543 18.6334C19.902 19.0006 19.4642 19.3948 19.0432 19.8159ZM33.6613 34.1159C34.4442 33.3006 34.4352 32.0101 33.6411 31.2059L27.1824 24.6652C26.3581 23.8305 25.012 23.8262 24.1825 24.6557C23.3566 25.4815 23.3566 26.8204 24.1825 27.6463L30.6823 34.1461C31.5084 34.9722 32.8521 34.9586 33.6613 34.1159Z" fill="black"/>
<path d="M17.6032 19.376L17.8544 21.1347C18.2235 20.6796 18.6197 20.2393 19.0432 19.8159C19.4642 19.3948 19.902 19.0006 20.3543 18.6334L20.1033 16.876C19.1384 12.6683 15.6355 9.51954 11.3492 9.00686C7.13296 8.50258 3.6669 5.44555 2.63989 1.32536L2.55473 0.983722C2.29499 -0.0583212 0.953576 -0.350941 0.283451 0.488257C0.0314016 0.8039 -0.0591451 1.21898 0.0385508 1.61092L0.603149 3.87598C1.63016 7.99616 5.09622 11.0532 9.31242 11.5575C13.5988 12.0702 16.6383 15.1683 17.6032 19.376Z" fill="black"/>
</svg>
