<svg width="953" height="126" viewBox="0 0 953 126" fill="none" xmlns="http://www.w3.org/2000/svg">
<path d="M0 0H117.363V50.1068H104.291V63H117.363V126H0L0 0Z" fill="black"/>
<path d="M126.828 0H244.191V126H126.828V0ZM192.045 50.1068H178.974V63H192.045V50.1068Z" fill="black"/>
<path d="M318.873 113.107H305.802V126H253.656V0H371.019V87.4591L358.228 93.4205L371.019 100.352V126H318.873V113.107ZM318.733 42.2046H305.661V50.1068H318.733V42.2046Z" fill="black"/>
<path d="M445.701 113.107H432.63V126H380.484V0H497.847V87.4591L485.056 93.4205L497.847 100.352V126H445.701V113.107ZM445.561 42.2046H432.489V50.1068H445.561V42.2046Z" fill="black"/>
<path d="M507.312 0H624.675V126H507.312V0ZM572.529 50.1068H559.458V63H572.529V50.1068Z" fill="black"/>
<path d="M634.14 0H738.431L751.503 12.7545V113.107L738.431 126H634.14V0ZM699.357 50.1068H686.286V63H699.357V50.1068Z" fill="black"/>
<path d="M760.968 0H826.185V126H760.968V0Z" fill="black"/>
<path d="M861.64 100.352H835.638V0H953V100.352H926.998V126H861.64V100.352Z" fill="black"/>
</svg>
